# xmcd
#
# Track frame offsets:
#	150
#	13297
#	28502
#	49077
#	61260
#	73787
#	88067
#	104602
#	121487
#	134127
#	149410
#	166365
#	181342
#	198947
#
# Disc length: 2867
#
# Revision: 1
# Processed by: cddbd v1.5.1PL0 Copyright (c) Steve Scherf et al.
# Submitted via: VisiTrax 2.9.10.220 - For more info visit www.synapsa.com
# Normalized: r0:DSETVAR1
#
DISCID=d40b310e
DTITLE=Various Artist - Hot Hits Country - Volume 48
DYEAR=1995
DGENRE=Country
TTITLE0=Brooks and Dunn - Whiskey Under The Bridge
TTITLE1=George Strait - Check Yes Or No
TTITLE2=Reba McEntire - On My Own
TTITLE3=Little Texas - Life Goes On
TTITLE4=Wade Hayes - Don't Stop
TTITLE5=Shenandoah - Heaven Bound (I'm Ready)
TTITLE6=Bobbie Cryner - I Just Can't Stand To Be Unhappy
TTITLE7=Lorrie Morgan - Back In Your Arms Again
TTITLE8=Clay Walker - Who Needs You Baby
TTITLE9=Pam Tillis - Deep Down
TTITLE10=Lee Roy Parnell - When A Woman Loves A Man
TTITLE11=Aaron Tippin - That's As Close As I'll Get to Loving You
TTITLE12=Tracy Byrd - Love Lessons
TTITLE13=Mark Chesnutt - Trouble
EXTD=
EXTT0=
EXTT1=
EXTT2=
EXTT3=
EXTT4=
EXTT5=
EXTT6=
EXTT7=
EXTT8=
EXTT9=
EXTT10=
EXTT11=
EXTT12=
EXTT13=
PLAYORDER=
